<?xml version="1.0" standalone="no"?>
<!DOCTYPE svg PUBLIC "-//W3C//DTD SVG 20010904//EN"
 "http://www.w3.org/TR/2001/REC-SVG-20010904/DTD/svg10.dtd">
<svg version="1.0" xmlns="http://www.w3.org/2000/svg"
 width="3508.000000pt" height="3508.000000pt" viewBox="0 0 3508.000000 3508.000000"
 preserveAspectRatio="xMidYMid meet">
<metadata>
Created by potrace 1.14, written by Peter Selinger 2001-2017
</metadata>
<g transform="translate(0.000000,3508.000000) scale(0.100000,-0.100000)"
fill="#000000" stroke="none">
<path d="M16265 27550 c-16 -5 -133 -14 -260 -20 -126 -7 -237 -15 -245 -20
-8 -4 -58 -11 -110 -15 -188 -13 -569 -73 -885 -139 -66 -13 -156 -32 -200
-40 -44 -9 -89 -21 -100 -26 -11 -5 -60 -18 -110 -29 -49 -11 -124 -29 -165
-41 -41 -12 -106 -30 -145 -39 -38 -10 -92 -26 -120 -35 -244 -81 -484 -161
-550 -184 -125 -44 -441 -171 -530 -213 -22 -10 -87 -39 -145 -65 -165 -73
-703 -346 -830 -422 -231 -137 -277 -164 -360 -215 -103 -64 -342 -224 -465
-312 -49 -36 -108 -77 -130 -92 -22 -15 -48 -34 -57 -43 -9 -8 -56 -44 -103
-80 -156 -119 -379 -301 -507 -416 -70 -62 -135 -120 -145 -128 -10 -8 -92
-86 -183 -173 -309 -294 -675 -692 -893 -969 -194 -246 -244 -311 -267 -346
-14 -20 -56 -80 -95 -134 -76 -106 -265 -388 -305 -455 -14 -23 -39 -63 -56
-88 -17 -25 -48 -77 -70 -114 -21 -37 -50 -87 -64 -111 -14 -24 -44 -78 -68
-122 -24 -43 -48 -86 -53 -94 -23 -38 -291 -576 -334 -670 -26 -58 -55 -123
-65 -145 -46 -97 -195 -476 -211 -535 -7 -25 -16 -49 -20 -55 -4 -5 -39 -107
-78 -225 -39 -118 -78 -237 -87 -265 -9 -27 -25 -81 -34 -120 -10 -38 -28
-104 -40 -145 -19 -69 -36 -134 -91 -370 -41 -174 -61 -269 -85 -405 -23 -124
-35 -197 -74 -445 -18 -119 -53 -461 -71 -715 -15 -203 -15 -1156 0 -1365 16
-234 49 -557 70 -705 25 -167 49 -320 51 -320 1 0 13 -63 26 -140 27 -167 54
-292 128 -590 23 -97 38 -153 90 -340 55 -199 173 -559 201 -611 8 -16 15 -35
15 -41 0 -7 12 -43 26 -80 15 -38 38 -97 51 -133 44 -115 128 -313 195 -460
40 -89 326 -660 363 -727 71 -127 190 -332 220 -378 18 -27 53 -81 77 -120 69
-108 171 -263 225 -340 27 -38 65 -92 84 -120 54 -77 176 -241 249 -332 36
-46 83 -106 105 -134 22 -28 62 -77 88 -108 27 -31 63 -74 80 -95 85 -103 405
-449 555 -598 130 -131 424 -404 597 -555 136 -119 470 -380 625 -488 19 -14
60 -43 90 -65 85 -61 368 -250 376 -250 3 0 23 -13 43 -28 30 -24 219 -139
311 -190 14 -8 75 -42 135 -77 270 -155 889 -451 1170 -560 39 -14 78 -31 89
-37 10 -5 37 -16 60 -23 22 -8 79 -28 126 -45 148 -53 493 -167 560 -185 36
-9 74 -21 85 -26 11 -5 47 -15 80 -23 33 -8 94 -25 135 -36 41 -12 116 -30
165 -41 50 -10 101 -24 115 -29 25 -10 84 -23 305 -64 66 -13 127 -25 135 -29
15 -6 119 -22 350 -57 69 -10 134 -21 145 -24 11 -4 117 -16 235 -27 118 -11
262 -25 320 -31 143 -16 1446 -16 1590 0 58 6 202 20 320 31 118 11 224 23
235 27 11 3 76 14 145 24 293 44 336 51 355 60 11 4 69 16 129 25 60 8 113 18
119 22 5 3 48 14 96 24 123 26 284 64 371 89 41 11 102 28 135 36 33 8 69 18
80 23 11 5 40 14 65 20 53 14 349 107 400 126 45 17 166 60 255 92 39 14 84
31 100 38 17 7 62 25 100 40 39 15 147 61 240 102 94 42 186 81 206 89 32 11
598 295 637 319 10 6 55 32 102 58 177 100 340 197 425 252 142 92 461 307
490 329 37 29 94 71 130 96 130 91 434 337 616 500 77 69 154 135 172 148 28
20 156 143 327 314 177 176 511 540 589 640 20 26 77 96 126 156 110 135 213
267 283 364 29 40 83 115 120 165 138 190 339 508 512 808 95 165 367 702 428
845 13 30 34 78 47 105 13 28 45 102 70 165 26 63 51 123 57 134 5 10 18 46
29 80 10 33 24 70 29 81 22 45 165 466 221 650 12 39 27 88 34 110 7 22 20 74
29 115 10 41 21 84 26 95 9 20 22 75 66 270 13 61 33 151 45 200 46 203 99
521 125 750 8 72 19 144 24 160 5 17 16 136 24 265 9 129 18 264 22 300 11
121 15 1133 4 1144 -5 5 -10 41 -10 78 0 104 -29 499 -39 538 -5 19 -16 94
-25 165 -17 148 -55 400 -85 555 -43 225 -53 276 -59 290 -3 8 -16 60 -28 115
-34 151 -100 408 -134 520 -12 39 -32 106 -45 150 -25 87 -92 288 -106 320 -5
11 -13 34 -18 50 -5 17 -24 68 -41 115 -17 47 -42 115 -55 151 -12 36 -27 74
-33 85 -6 10 -22 51 -37 89 -15 39 -35 88 -44 110 -10 22 -42 94 -71 160 -111
254 -430 876 -515 1005 -12 19 -41 67 -64 105 -103 173 -195 316 -381 589 -69
101 -229 312 -355 468 -44 55 -87 110 -96 123 -8 13 -60 75 -115 137 -56 62
-123 140 -151 173 -111 134 -570 594 -783 787 -121 108 -323 284 -338 292 -9
5 -67 50 -129 100 -150 122 -347 271 -478 361 -177 122 -326 221 -395 262 -41
25 -97 60 -125 78 -56 37 -170 103 -355 208 -146 82 -584 302 -750 377 -63 28
-131 58 -150 67 -109 49 -104 47 -340 139 -157 61 -229 86 -725 250 -27 9 -81
25 -120 35 -38 10 -104 27 -145 39 -41 12 -115 30 -165 41 -49 11 -99 24 -110
29 -54 24 -653 138 -945 180 -62 9 -240 29 -450 50 -241 25 -463 33 -940 35
-283 2 -528 -1 -545 -5z m1263 -76 c4 -6 96 -16 206 -23 109 -7 206 -16 215
-21 9 -5 98 -16 199 -26 100 -10 182 -20 182 -24 0 -4 51 -12 113 -20 61 -7
117 -16 122 -20 6 -4 66 -15 135 -25 69 -10 130 -21 135 -25 6 -4 46 -14 90
-20 44 -7 85 -16 90 -20 6 -4 54 -16 108 -26 53 -10 97 -21 97 -24 0 -4 34
-13 75 -20 42 -7 78 -16 80 -21 3 -4 37 -13 75 -20 39 -7 70 -15 70 -19 0 -4
28 -13 63 -20 34 -6 76 -18 92 -25 17 -7 52 -18 80 -25 27 -6 54 -15 60 -19 5
-5 42 -16 80 -26 39 -11 72 -22 75 -25 3 -4 27 -12 55 -19 27 -7 54 -16 60
-20 5 -4 37 -16 70 -26 33 -10 65 -21 70 -25 6 -3 30 -13 55 -20 25 -7 50 -17
55 -20 6 -4 28 -13 50 -20 22 -7 45 -16 50 -21 6 -4 33 -15 60 -24 50 -16 89
-32 155 -64 19 -10 54 -23 78 -31 23 -7 42 -16 42 -21 0 -4 12 -10 28 -13 30
-7 19 -1 412 -196 300 -149 431 -217 440 -228 3 -4 21 -15 40 -25 19 -9 53
-28 75 -42 22 -13 55 -31 73 -40 18 -9 56 -31 83 -50 27 -19 51 -35 55 -35 3
0 24 -13 47 -28 23 -16 50 -31 60 -35 9 -4 17 -11 17 -17 0 -5 6 -10 13 -10 7
0 31 -13 53 -30 21 -16 43 -30 47 -30 4 0 31 -17 60 -38 29 -21 60 -41 70 -45
9 -3 17 -11 17 -17 0 -5 6 -10 13 -10 7 0 28 -13 47 -30 19 -16 41 -29 48 -30
7 0 15 -7 18 -15 4 -8 11 -15 18 -15 6 0 39 -22 73 -50 34 -27 65 -50 69 -50
3 0 35 -22 70 -50 35 -27 66 -50 69 -50 3 0 18 -13 33 -28 15 -16 34 -31 42
-34 8 -3 49 -36 92 -72 42 -36 79 -66 83 -66 4 0 52 -39 107 -87 55 -49 107
-92 117 -98 9 -5 34 -27 56 -47 22 -20 74 -68 115 -105 209 -189 789 -775 790
-797 0 -5 19 -26 42 -47 22 -21 46 -47 52 -58 6 -10 50 -64 99 -119 48 -55 87
-102 87 -106 0 -6 146 -187 180 -222 11 -12 20 -24 20 -28 0 -4 21 -33 46 -64
26 -31 49 -64 52 -72 3 -8 30 -45 59 -81 29 -36 53 -70 53 -74 0 -4 25 -40 55
-80 30 -39 55 -75 55 -79 0 -4 18 -31 40 -61 22 -30 40 -57 40 -60 0 -3 14
-24 30 -47 17 -22 30 -47 30 -55 0 -7 4 -13 9 -13 6 0 16 -11 23 -24 7 -13 24
-43 36 -66 13 -24 38 -64 56 -89 17 -25 39 -62 49 -81 18 -36 30 -58 57 -100
9 -14 32 -52 50 -85 19 -33 44 -78 56 -100 24 -43 300 -596 340 -680 13 -27
26 -62 30 -77 3 -16 9 -28 13 -28 4 0 13 -17 20 -37 7 -21 22 -58 33 -83 28
-60 43 -98 58 -140 12 -35 28 -74 55 -132 8 -18 22 -55 30 -83 9 -27 23 -64
31 -82 8 -17 14 -37 14 -45 0 -7 6 -22 13 -33 8 -11 22 -51 32 -90 10 -38 24
-80 31 -94 7 -13 16 -41 19 -63 4 -21 10 -38 14 -38 4 0 15 -35 26 -77 10 -43
22 -82 25 -88 4 -5 13 -35 21 -65 7 -30 16 -60 20 -65 4 -6 13 -41 20 -78 7
-37 16 -67 19 -67 4 0 15 -42 25 -92 10 -51 21 -97 25 -103 4 -5 13 -37 19
-70 7 -33 16 -69 21 -80 5 -11 16 -65 25 -120 9 -55 20 -104 24 -110 5 -5 14
-53 21 -105 7 -52 16 -99 20 -105 4 -5 15 -71 24 -145 10 -74 21 -142 25 -150
5 -9 14 -72 21 -140 7 -69 16 -129 20 -135 4 -5 13 -89 20 -185 6 -96 16 -184
20 -195 39 -90 39 -1660 0 -1750 -4 -11 -14 -99 -20 -195 -7 -96 -16 -179 -20
-185 -4 -5 -13 -64 -19 -130 -7 -66 -16 -129 -21 -140 -5 -11 -17 -81 -26
-155 -9 -74 -20 -137 -24 -140 -3 -3 -12 -48 -19 -100 -7 -52 -17 -99 -21
-105 -4 -5 -15 -55 -24 -110 -10 -55 -21 -109 -26 -120 -5 -11 -14 -47 -20
-80 -6 -33 -15 -69 -20 -80 -5 -11 -16 -56 -25 -99 -8 -44 -19 -84 -24 -90 -5
-6 -14 -41 -21 -78 -7 -38 -15 -68 -19 -68 -4 0 -13 -28 -20 -62 -7 -35 -16
-67 -20 -73 -5 -5 -16 -41 -25 -80 -10 -38 -21 -74 -25 -80 -4 -5 -14 -32 -21
-60 -7 -27 -17 -54 -21 -60 -4 -5 -15 -39 -24 -75 -9 -36 -20 -69 -25 -75 -4
-5 -14 -30 -21 -55 -7 -25 -16 -49 -19 -55 -4 -5 -15 -35 -24 -65 -10 -30 -24
-70 -32 -87 -8 -18 -20 -48 -28 -65 -8 -18 -20 -51 -28 -73 -7 -22 -16 -42
-19 -45 -3 -3 -12 -23 -19 -45 -7 -22 -18 -51 -25 -65 -27 -53 -64 -137 -76
-172 -7 -21 -16 -38 -20 -38 -4 0 -10 -12 -13 -27 -8 -34 -320 -657 -336 -673
-3 -3 -11 -16 -18 -30 -6 -14 -25 -47 -42 -75 -16 -27 -36 -64 -44 -82 -9 -17
-19 -33 -23 -35 -5 -1 -16 -19 -25 -38 -21 -41 -32 -60 -70 -117 -15 -23 -28
-45 -28 -50 0 -5 -18 -34 -40 -63 -22 -29 -40 -58 -40 -63 0 -6 -18 -34 -40
-63 -22 -29 -40 -56 -40 -60 0 -3 -16 -28 -35 -54 -19 -26 -35 -53 -35 -59 0
-6 -5 -11 -10 -11 -6 0 -14 -8 -17 -17 -4 -10 -26 -43 -50 -75 -24 -31 -43
-59 -43 -63 0 -3 -21 -32 -46 -63 -26 -31 -49 -63 -52 -71 -3 -8 -12 -22 -19
-30 -47 -56 -113 -141 -113 -148 0 -5 -9 -14 -20 -21 -11 -7 -20 -17 -20 -23
0 -6 -36 -53 -80 -104 -44 -51 -80 -97 -80 -101 0 -5 -11 -20 -24 -34 -52 -53
-206 -229 -206 -235 0 -3 -27 -32 -60 -65 -33 -33 -60 -63 -60 -68 0 -11 -585
-595 -602 -601 -7 -2 -39 -30 -70 -62 -31 -33 -59 -59 -63 -59 -3 0 -62 -51
-131 -113 -69 -61 -131 -114 -138 -116 -6 -2 -50 -37 -98 -78 -47 -40 -89 -73
-92 -73 -3 0 -14 -7 -23 -15 -52 -46 -142 -115 -150 -115 -4 0 -14 -9 -21 -20
-7 -11 -17 -20 -23 -20 -6 0 -39 -22 -74 -50 -35 -27 -66 -50 -69 -50 -4 0
-12 -5 -19 -10 -31 -27 -147 -110 -152 -110 -3 0 -30 -18 -60 -40 -30 -22 -57
-40 -61 -40 -4 0 -31 -18 -60 -40 -30 -22 -64 -44 -76 -49 -13 -5 -38 -21 -57
-35 -19 -14 -39 -26 -43 -26 -4 0 -29 -15 -55 -33 -27 -19 -75 -49 -108 -67
-33 -19 -62 -36 -65 -39 -3 -3 -21 -15 -40 -25 -35 -19 -55 -30 -162 -89 -31
-18 -87 -48 -125 -67 -37 -19 -69 -38 -71 -42 -2 -5 -8 -8 -13 -8 -14 0 -163
-74 -167 -82 -2 -5 -8 -8 -13 -8 -11 0 -161 -72 -169 -81 -3 -3 -21 -11 -40
-19 -19 -7 -69 -28 -110 -48 -147 -68 -175 -80 -210 -93 -19 -7 -37 -16 -40
-19 -3 -3 -25 -12 -50 -20 -25 -8 -54 -19 -65 -25 -11 -7 -40 -18 -65 -25 -25
-8 -54 -20 -65 -27 -11 -7 -26 -13 -35 -13 -8 0 -31 -8 -50 -18 -19 -11 -57
-24 -83 -31 -27 -6 -59 -18 -70 -25 -12 -8 -38 -17 -57 -21 -19 -4 -40 -11
-45 -15 -6 -5 -33 -14 -60 -21 -28 -7 -52 -15 -55 -19 -3 -3 -36 -14 -75 -25
-38 -10 -75 -22 -81 -26 -6 -5 -35 -14 -65 -20 -30 -6 -59 -15 -64 -20 -6 -4
-44 -15 -85 -24 -41 -9 -84 -20 -95 -25 -11 -5 -45 -14 -75 -21 -30 -7 -59
-16 -65 -20 -5 -3 -54 -15 -107 -25 -54 -10 -98 -21 -98 -25 0 -4 -38 -12 -85
-19 -47 -7 -85 -15 -85 -19 0 -4 -39 -13 -87 -20 -49 -7 -92 -17 -98 -21 -5
-4 -68 -16 -140 -25 -71 -10 -134 -21 -140 -25 -5 -4 -59 -13 -120 -20 -60 -6
-119 -16 -130 -20 -21 -9 -159 -25 -305 -35 -47 -4 -94 -10 -105 -15 -21 -9
-327 -30 -432 -30 -34 0 -65 -4 -68 -10 -9 -14 -1035 -14 -1035 0 0 6 -29 10
-67 10 -110 0 -416 21 -438 30 -11 5 -58 11 -105 15 -146 10 -284 26 -305 35
-11 4 -69 14 -130 20 -60 7 -114 16 -120 20 -5 4 -68 15 -140 25 -71 9 -134
21 -140 25 -5 4 -46 13 -90 20 -44 7 -84 16 -90 20 -5 4 -44 13 -85 20 -41 7
-79 16 -85 20 -5 4 -53 15 -105 25 -52 10 -99 21 -105 25 -5 3 -35 12 -65 19
-30 7 -64 16 -75 21 -11 5 -54 16 -95 25 -41 9 -79 20 -85 24 -5 5 -34 14 -64
20 -30 6 -59 15 -65 20 -6 4 -40 16 -76 26 -36 9 -69 21 -75 25 -5 4 -26 11
-45 15 -19 4 -48 13 -65 20 -16 7 -48 19 -70 25 -22 7 -44 16 -50 20 -5 4 -35
15 -66 24 -31 9 -69 23 -85 31 -16 8 -36 15 -44 15 -9 0 -24 6 -35 13 -11 8
-46 21 -77 31 -32 10 -60 21 -63 26 -3 4 -17 11 -32 15 -15 3 -52 17 -81 31
-29 13 -57 24 -62 24 -6 0 -31 11 -57 25 -27 13 -79 38 -118 56 -84 37 -630
311 -712 356 -83 45 -123 67 -163 89 -19 10 -38 22 -41 27 -3 4 -21 15 -40 25
-65 35 -114 64 -153 93 -22 16 -44 29 -48 29 -5 0 -27 14 -50 30 -22 17 -45
30 -50 30 -5 0 -33 18 -62 40 -29 22 -58 40 -65 40 -6 0 -14 7 -17 15 -4 8
-11 15 -16 15 -11 0 -101 61 -106 73 -2 4 -8 7 -13 7 -6 0 -39 21 -75 48 -35
26 -96 70 -135 97 -39 28 -78 58 -87 67 -9 10 -20 18 -25 18 -5 0 -44 29 -87
65 -43 36 -81 65 -85 65 -4 0 -46 34 -95 75 -49 41 -91 75 -94 75 -3 0 -20 15
-39 34 -18 18 -38 35 -45 37 -6 2 -74 63 -152 134 -78 72 -152 135 -164 142
-31 18 -606 595 -606 609 0 6 -8 18 -17 25 -17 14 -268 295 -303 339 -47 59
-152 187 -170 206 -11 12 -20 25 -20 29 0 3 -30 44 -67 90 -77 95 -155 202
-165 228 -4 9 -12 17 -18 17 -6 0 -14 10 -19 23 -5 12 -27 46 -50 74 -22 29
-41 55 -41 59 0 3 -18 32 -40 63 -83 115 -130 187 -140 209 -6 13 -21 38 -35
56 -14 18 -25 38 -25 44 0 7 -4 12 -10 12 -5 0 -10 5 -10 11 0 6 -13 29 -28
52 -38 57 -49 76 -69 117 -10 19 -32 56 -50 82 -18 26 -39 62 -48 80 -8 18
-31 60 -51 93 -19 33 -37 68 -41 78 -3 9 -9 17 -13 17 -4 0 -13 18 -20 40 -7
22 -16 40 -19 40 -4 0 -15 23 -26 50 -11 28 -22 50 -25 50 -3 0 -12 17 -19 38
-8 20 -17 39 -20 42 -9 7 -81 157 -81 169 0 5 -3 11 -7 13 -9 4 -63 111 -63
124 0 5 -11 32 -25 61 -61 129 -74 160 -81 186 -3 15 -9 27 -14 27 -4 0 -13
19 -19 43 -7 23 -17 47 -21 52 -4 6 -13 28 -20 50 -7 22 -16 45 -21 50 -4 6
-15 33 -24 60 -9 28 -23 64 -31 82 -8 17 -14 34 -14 38 0 4 -6 21 -14 38 -8
18 -22 57 -31 87 -10 30 -21 60 -25 65 -4 6 -11 26 -15 45 -4 19 -13 49 -20
65 -8 17 -21 57 -31 90 -9 33 -20 65 -24 70 -4 6 -14 37 -21 70 -7 33 -16 62
-19 65 -4 3 -13 30 -19 60 -7 30 -19 69 -26 85 -7 17 -18 60 -25 98 -7 37 -16
67 -20 67 -4 0 -13 33 -20 73 -7 39 -16 77 -20 82 -4 6 -15 53 -25 105 -10 52
-21 100 -25 105 -4 6 -13 46 -20 90 -6 44 -16 85 -20 90 -4 6 -16 66 -25 135
-10 69 -21 130 -25 135 -4 6 -13 57 -20 115 -7 58 -16 110 -20 115 -4 6 -13
69 -20 140 -7 72 -16 132 -20 135 -7 5 -26 214 -36 405 -4 61 -12 116 -18 124
-17 21 -16 1425 2 1442 6 7 12 33 12 59 0 85 31 455 40 475 5 11 14 74 21 140
7 66 15 125 19 130 4 6 13 60 20 120 7 61 16 115 20 120 4 6 16 67 26 138 10
70 21 127 25 127 4 0 12 39 19 88 7 48 16 92 20 97 5 6 16 51 26 100 9 50 20
95 24 100 4 6 13 42 20 80 7 39 16 75 21 81 5 6 15 44 24 85 8 41 19 83 24 94
5 11 15 43 22 70 6 28 15 55 19 60 3 6 12 35 19 65 8 30 17 60 21 65 5 6 16
39 25 75 9 36 20 70 24 75 4 6 14 33 21 60 7 28 16 55 21 60 4 6 15 37 24 70
10 33 21 65 24 70 4 6 14 30 21 55 8 25 17 47 20 50 3 3 12 25 20 50 7 25 19
56 26 70 7 14 18 41 24 60 7 19 19 51 27 70 9 19 24 53 33 75 10 22 29 65 43
95 14 30 29 67 32 83 4 15 10 27 14 27 5 0 14 19 22 42 22 69 344 703 374 738
7 8 20 31 29 50 9 19 28 53 41 75 14 22 34 59 45 83 12 23 25 42 30 42 6 0 10
5 10 12 0 12 11 31 88 146 23 35 42 67 42 71 0 4 12 23 26 42 14 19 30 44 35
57 5 12 13 22 19 22 5 0 10 5 10 11 0 12 61 102 73 107 4 2 7 9 7 15 0 6 20
36 43 66 24 31 50 67 57 81 7 14 33 49 57 78 23 30 43 58 43 62 0 5 31 47 70
94 38 47 70 89 70 92 0 6 136 174 177 219 10 10 20 25 23 31 3 7 56 69 118
138 61 69 112 129 112 133 0 26 830 853 856 853 6 0 19 10 31 23 30 33 230
207 239 207 4 0 16 9 28 20 39 38 191 162 206 168 8 3 49 34 90 69 41 35 81
63 88 63 6 0 12 5 12 10 0 6 8 14 18 17 9 4 42 27 72 51 30 25 62 47 70 50 8
3 40 25 71 49 30 24 61 43 67 43 7 0 12 5 12 10 0 6 8 14 18 17 9 4 31 17 48
30 17 13 36 23 42 23 7 0 12 5 12 10 0 6 10 14 23 19 12 5 37 21 56 35 19 14
41 26 48 26 8 0 16 7 19 15 4 8 10 15 16 15 5 0 29 14 53 30 24 17 46 30 49
30 4 0 28 15 54 33 26 17 63 40 82 50 19 10 53 29 75 42 50 31 110 64 161 90
21 11 41 22 44 25 20 20 725 370 745 370 4 0 33 12 64 26 31 15 74 34 96 44
22 9 56 24 75 33 19 9 55 22 80 31 25 8 59 21 75 30 17 9 45 19 63 22 17 3 32
9 32 13 0 4 21 13 48 20 26 8 52 17 57 21 6 4 37 15 70 25 33 10 65 22 70 26
6 4 33 13 60 20 28 6 55 15 60 20 6 4 39 15 75 24 36 9 70 20 75 25 6 4 35 13
65 21 30 7 60 16 65 20 6 4 44 15 85 24 41 10 80 21 85 25 6 5 37 13 70 20 33
7 65 16 70 20 6 4 42 13 80 20 39 7 75 16 80 20 6 4 48 15 95 24 47 10 94 21
105 26 11 5 54 14 94 20 41 6 80 15 85 19 6 5 67 16 136 26 69 10 130 21 135
25 6 4 60 13 120 20 61 7 115 16 120 20 6 4 89 15 185 25 96 9 182 20 190 25
9 4 103 13 210 20 107 6 204 16 215 21 31 14 162 16 823 15 406 -1 616 -5 620
-12z"/>
<path d="M13712 23489 c-232 -18 -424 -92 -594 -228 -198 -158 -320 -363 -392
-658 -54 -224 -51 63 -51 -4998 0 -4485 1 -4705 18 -4815 103 -653 393 -942
1047 -1042 128 -20 6231 -19 6340 0 447 81 730 313 827 681 34 126 38 342 9
465 -42 181 -105 294 -241 432 -138 140 -241 202 -425 257 -219 66 -5 61
-2752 65 l-2488 2 -3 4343 c-2 4111 -3 4348 -20 4447 -58 339 -150 542 -332
725 -105 106 -202 176 -313 227 -178 79 -408 115 -630 97z"/>
<path d="M19030 22694 c-840 -63 -1480 -427 -1905 -1084 -320 -493 -437 -1089
-324 -1644 100 -494 407 -944 829 -1218 358 -233 889 -396 2010 -617 663 -130
1112 -234 1302 -300 154 -53 305 -150 415 -265 168 -175 252 -361 272 -605 9
-98 0 -266 -18 -358 -28 -141 -101 -309 -189 -432 -227 -320 -613 -534 -1092
-605 -411 -61 -876 -37 -1230 66 -493 142 -869 402 -1185 818 -252 332 -506
824 -710 1373 l-48 127 -264 0 -264 0 6 -77 c3 -43 37 -667 75 -1388 38 -720
72 -1349 76 -1397 l6 -88 204 0 c198 0 204 1 224 23 12 12 143 162 292 333
l271 311 113 -81 c660 -474 1387 -689 2154 -637 573 39 1018 177 1425 442 462
300 810 731 964 1194 201 604 119 1345 -202 1830 -256 385 -654 669 -1169 833
-239 77 -692 174 -1418 303 -778 139 -1035 203 -1353 338 -346 147 -595 392
-683 671 -59 185 -58 417 1 626 60 210 220 435 425 598 336 268 860 381 1455
315 696 -77 1234 -424 1625 -1045 148 -235 315 -601 424 -931 l38 -113 263 0
263 0 -5 43 c-2 23 -46 593 -98 1267 -52 674 -97 1249 -100 1278 l-6 52 -158
0 -158 0 -263 -279 -263 -279 -106 72 c-411 282 -834 447 -1311 511 -112 15
-499 27 -610 19z"/>
</g>
</svg>
