<?xml version="1.0" standalone="no"?>
<!DOCTYPE svg PUBLIC "-//W3C//DTD SVG 20010904//EN"
 "http://www.w3.org/TR/2001/REC-SVG-20010904/DTD/svg10.dtd">
<svg version="1.0" xmlns="http://www.w3.org/2000/svg"
 width="3508.000000pt" height="2481.000000pt" viewBox="0 0 3508.000000 2481.000000"
 preserveAspectRatio="xMidYMid meet">

<g transform="translate(0.000000,2481.000000) scale(0.100000,-0.100000)"
fill="#00abb3" stroke="none">
<path d="M32707 17526 c-42 -834 -337 -1516 -781 -1810 -163 -108 -362 -188
-563 -227 l-63 -12 0 -188 0 -189 438 -2 437 -3 6 -1800 c4 -1266 9 -1816 17
-1853 38 -180 117 -369 201 -482 59 -79 176 -195 246 -246 225 -160 454 -230
793 -241 201 -6 305 3 462 43 216 54 374 135 554 284 365 302 570 817 612
1533 l6 117 -180 0 -180 0 -7 -82 c-18 -234 -61 -487 -109 -646 -111 -368
-324 -612 -616 -704 -63 -19 -96 -23 -205 -23 -116 1 -139 4 -210 29 -267 93
-429 311 -474 639 -8 53 -11 615 -11 1758 l0 1679 815 0 815 0 0 245 0 245
-815 0 -815 0 0 1030 0 1030 -183 0 -184 0 -6 -124z"/>
<path d="M492 17250 c-257 -69 -410 -252 -469 -561 -17 -89 -18 -236 -18
-2804 0 -2578 1 -2715 18 -2805 61 -319 193 -467 487 -549 l95 -26 1835 0
1835 0 80 23 c111 32 190 77 261 147 101 100 147 216 147 370 0 160 -52 284
-164 389 -107 101 -220 147 -409 166 -54 5 -683 10 -1467 10 l-1373 0 -2 2538
-3 2537 -23 80 c-69 244 -211 405 -417 471 -112 37 -306 43 -413 14z"/>
<path d="M9610 17264 c-255 -24 -393 -49 -546 -99 -334 -110 -547 -309 -659
-619 -87 -242 -125 -537 -125 -992 l0 -231 -242 -6 c-263 -6 -338 -18 -453
-72 -73 -35 -149 -111 -183 -182 -25 -53 -27 -68 -27 -183 0 -115 2 -130 27
-183 56 -120 170 -207 325 -248 65 -18 117 -22 316 -26 l237 -5 0 -1662 c0
-1058 4 -1694 10 -1751 23 -201 82 -337 195 -450 118 -118 241 -167 415 -167
319 0 546 201 605 537 13 76 15 312 15 1791 l0 1704 153 0 c322 0 566 33 683
92 119 59 176 178 176 366 1 98 -2 116 -26 168 -45 99 -132 173 -251 214 -117
40 -214 52 -475 59 l-255 6 2 244 c3 269 18 400 59 524 59 177 147 245 359
278 81 13 192 7 415 -22 278 -37 352 -28 457 52 154 119 208 346 124 521 -89
187 -330 298 -730 338 -93 9 -514 12 -601 4z"/>
<path d="M6065 17206 c-144 -33 -227 -79 -331 -182 -117 -115 -164 -236 -164
-418 0 -219 88 -391 253 -493 124 -77 216 -103 367 -103 191 0 326 54 451 179
120 121 160 228 160 426 0 195 -40 305 -150 416 -116 115 -260 177 -431 185
-60 2 -117 -1 -155 -10z"/>
<path d="M23180 15740 c-572 -36 -1078 -275 -1484 -702 -251 -263 -432 -559
-550 -898 -119 -342 -167 -648 -168 -1070 -1 -537 90 -964 288 -1364 284 -571
796 -1029 1347 -1205 246 -79 427 -105 707 -105 237 0 358 14 565 64 598 144
1112 504 1443 1007 265 404 402 894 419 1493 24 902 -230 1601 -773 2130 -245
239 -488 396 -787 509 -288 110 -661 162 -1007 141z m375 -394 c333 -51 600
-217 819 -511 171 -228 290 -582 345 -1025 60 -479 42 -1218 -39 -1646 -103
-536 -266 -853 -577 -1121 -203 -175 -455 -264 -753 -264 -260 -1 -466 63
-665 206 -174 124 -336 319 -446 537 -96 189 -186 517 -229 833 -38 281 -53
855 -30 1156 37 479 122 834 267 1120 164 324 421 563 723 671 146 53 402 72
585 44z"/>
<path d="M17615 15674 c-490 -66 -860 -281 -1130 -659 -199 -279 -295 -573
-295 -905 0 -233 48 -433 151 -631 170 -323 429 -531 836 -670 215 -73 667
-183 1028 -249 160 -29 560 -117 684 -150 301 -80 456 -189 556 -395 103 -213
97 -464 -16 -688 -86 -171 -255 -323 -455 -411 -169 -74 -333 -105 -599 -113
-271 -8 -475 19 -674 89 -524 184 -866 590 -1181 1403 l-58 150 -173 3 c-95 1
-176 -1 -181 -6 -4 -4 10 -338 32 -742 22 -404 47 -850 54 -991 7 -141 16
-262 20 -268 5 -7 53 -11 142 -11 l134 0 197 225 c108 124 201 224 207 222 6
-3 70 -44 141 -92 141 -95 371 -214 512 -265 555 -201 1249 -160 1733 103 319
173 582 439 720 730 64 134 95 233 121 381 27 159 23 425 -10 584 -88 420
-340 731 -755 927 -222 106 -459 164 -1191 295 -551 99 -790 162 -988 262
-212 105 -356 263 -410 447 -27 94 -27 278 1 382 71 266 303 497 587 588 180
58 240 66 485 66 177 0 244 -4 315 -18 327 -66 564 -188 774 -398 209 -209
390 -530 520 -921 l33 -98 179 0 179 0 0 23 c0 12 -5 74 -10 137 -6 63 -26
320 -45 570 -70 914 -76 986 -81 1028 l-5 42 -112 0 -113 0 -173 -185 c-96
-102 -175 -185 -177 -185 -2 0 -50 31 -108 69 -266 175 -545 281 -861 326
-124 18 -405 18 -540 -1z"/>
<path d="M27945 15675 c-126 -8 -516 -28 -865 -45 -349 -17 -645 -33 -658 -36
l-22 -4 2 -188 3 -187 295 -6 c307 -6 343 -11 436 -55 156 -74 247 -201 292
-408 16 -75 17 -204 17 -1806 l0 -1725 -29 -53 c-37 -66 -102 -127 -169 -158
-102 -46 -174 -54 -503 -54 l-304 0 0 -205 0 -205 1565 0 1565 0 0 205 0 205
-392 0 c-416 1 -486 7 -600 49 -88 34 -142 81 -180 158 l-33 68 0 695 c0 722
1 734 46 1010 49 296 197 846 314 1160 125 337 283 595 503 822 203 209 430
333 571 314 100 -14 104 -56 21 -221 -72 -142 -100 -244 -100 -362 0 -239 106
-444 277 -536 96 -51 249 -70 379 -46 150 28 298 146 372 299 68 138 77 187
77 405 0 221 -17 307 -85 450 -174 364 -563 533 -1035 449 -378 -67 -682 -303
-951 -736 -169 -272 -348 -683 -468 -1073 -21 -66 -43 -136 -49 -155 -10 -28
-13 176 -17 975 -5 1001 -5 1010 -25 1011 -11 1 -123 -4 -250 -11z"/>
<path d="M13035 15430 c-1066 -81 -1801 -660 -2085 -1642 -159 -551 -156
-1247 7 -1788 117 -389 305 -703 579 -970 243 -236 501 -391 832 -500 293 -97
602 -142 972 -143 508 -1 871 77 1273 272 416 203 733 535 837 879 31 103 26
251 -12 333 -72 156 -264 241 -474 209 -103 -16 -163 -47 -254 -134 -430 -410
-714 -609 -980 -685 -179 -51 -449 -66 -625 -35 -486 84 -843 455 -964 999
-20 90 -41 263 -41 336 l0 38 1338 4 c1435 4 1403 3 1619 57 326 82 449 227
484 568 39 394 -97 888 -350 1268 -299 449 -792 772 -1351 884 -235 48 -564
68 -805 50z m475 -889 c202 -54 338 -129 471 -261 90 -90 147 -171 205 -294
73 -154 119 -320 144 -511 6 -49 13 -107 16 -127 l6 -38 -1126 0 -1126 0 6 48
c79 677 400 1101 907 1198 107 20 398 12 497 -15z"/>
<path d="M6070 15420 c-235 -37 -418 -217 -477 -467 -17 -74 -18 -175 -18
-2043 l0 -1965 22 -85 c34 -129 86 -223 168 -305 117 -118 241 -167 415 -168
177 0 309 52 425 168 121 120 178 260 195 480 12 157 13 3633 0 3780 -25 301
-184 514 -439 589 -67 20 -217 28 -291 16z"/>
</g>
</svg>
